<svg width="354" height="451" viewBox="0 0 354 451" fill="none" xmlns="http://www.w3.org/2000/svg">
<line y1="-1" x2="33.6207" y2="-1" transform="matrix(0 1 1 0 225.212 393)" stroke="#4B6587" stroke-width="2"/>
<line y1="-1" x2="26.4782" y2="-1" transform="matrix(-0.476718 0.879056 0.869103 0.494631 224.835 427)" stroke="#4B6587" stroke-width="2"/>
<line y1="-1" x2="45.4415" y2="-1" transform="matrix(1 0 0 -1 225.208 424.552)" stroke="#4B6587" stroke-width="2"/>
<line y1="-1" x2="30.6329" y2="-1" transform="matrix(0.906536 0.422129 0.405574 -0.914062 225.212 425)" stroke="#4B6587" stroke-width="2"/>
<line x1="130.212" y1="391" x2="130.212" y2="424.621" stroke="#4B6587" stroke-width="2"/>
<line y1="-1" x2="26.4782" y2="-1" transform="matrix(0.476718 0.879056 -0.869103 0.494631 129.212 425)" stroke="#4B6587" stroke-width="2"/>
<line x1="129.654" y1="424" x2="84.2123" y2="424" stroke="#4B6587" stroke-width="2"/>
<line y1="-1" x2="30.6329" y2="-1" transform="matrix(-0.906536 0.422129 -0.405574 -0.914062 129.982 424)" stroke="#4B6587" stroke-width="2"/>
<path d="M351.934 212.483C351.934 311.671 273.453 392.017 176.717 392.017C79.9813 392.017 1.5 311.671 1.5 212.483C1.5 113.294 79.9813 32.9482 176.717 32.9482C273.453 32.9482 351.934 113.294 351.934 212.483Z" stroke="#4B6587" stroke-width="3"/>
<path d="M163.119 115.5C163.119 146.843 138.326 172.19 107.817 172.19C77.3086 172.19 52.5151 146.843 52.5151 115.5C52.5151 84.1568 77.3086 58.8103 107.817 58.8103C138.326 58.8103 163.119 84.1568 163.119 115.5Z" stroke="#4B6587" stroke-width="3"/>
<path d="M304.493 115.5C304.493 146.843 279.699 172.19 249.191 172.19C218.682 172.19 193.889 146.843 193.889 115.5C193.889 84.1568 218.682 58.8103 249.191 58.8103C279.699 58.8103 304.493 84.1568 304.493 115.5Z" stroke="#4B6587" stroke-width="3"/>
<path d="M175.979 194.379L201.225 142.655L178.504 132.31L158.308 142.655L175.979 194.379Z" fill="#4B6587"/>
<path d="M21.7735 226.162C15.1627 238.742 8.28747 235.537 1.9411 231.69C1.05965 225.778 0.883354 212.073 1.94108 211.067C2.99881 210.06 15.6034 220.711 21.7735 226.162Z" stroke="#4B6587"/>
<path d="M30.5779 260.932C25.7026 274.586 17.8714 272.747 10.4919 270.173C8.55549 264.52 6.04548 251.057 6.99611 249.863C7.94675 248.669 23.1134 256.745 30.5779 260.932Z" fill="#4B6587"/>
<path d="M323.862 262.233C327.923 276.853 335.148 274.62 341.981 271.607C343.921 265.432 346.616 250.79 345.781 249.528C344.946 248.266 330.821 257.472 323.862 262.233Z" fill="#4B6587"/>
<path d="M305.862 254.233C309.923 268.853 317.148 266.62 323.981 263.607C325.921 257.432 328.616 242.79 327.781 241.528C326.946 240.266 312.821 249.472 305.862 254.233Z" fill="#4B6587"/>
<path d="M288.862 245.233C292.923 259.853 300.148 257.62 306.981 254.607C308.921 248.432 311.616 233.79 310.781 232.528C309.946 231.266 295.821 240.472 288.862 245.233Z" fill="#4B6587"/>
<path d="M49.0313 251.932C44.6532 265.497 37.3392 263.563 30.4371 260.903C28.567 255.238 26.0702 241.773 26.9413 240.594C27.8124 239.414 42.0309 247.661 49.0313 251.932Z" fill="#4B6587"/>
<path d="M68.0313 242.932C63.6532 256.497 56.3392 254.563 49.4371 251.903C47.567 246.238 45.0702 232.773 45.9413 231.594C46.8124 230.414 61.0309 238.661 68.0313 242.932Z" fill="#4B6587"/>
<path d="M330.212 226.633C336.706 238.774 343.459 235.681 349.693 231.967C350.559 226.262 350.732 213.035 349.693 212.064C348.654 211.093 336.273 221.372 330.212 226.633Z" stroke="#4B6587"/>
<path d="M312.042 219.357C318.535 231.498 325.288 228.405 331.522 224.691C332.388 218.986 332.561 205.76 331.522 204.788C330.483 203.817 318.102 214.096 312.042 219.357Z" stroke="#4B6587"/>
<path d="M40.7574 219.886C34.1466 232.466 27.2714 229.261 20.925 225.414C20.0435 219.502 19.8672 205.797 20.925 204.791C21.9827 203.784 34.5873 214.435 40.7574 219.886Z" stroke="#4B6587"/>
<path d="M40.7124 200.5V219C43.5457 220.5 50.0124 221.8 53.2124 215" stroke="#4B6587"/>
<path d="M318.712 201L313.212 219C311.046 219.333 306.312 218.5 304.712 212.5" stroke="#4B6587"/>
<path d="M5.2124 174.5C51.3791 203.167 135.712 284.4 103.712 376" stroke="#4B6587" stroke-width="3"/>
<path d="M348.212 179C299.811 206.952 207.861 291.683 241.409 381" stroke="#4B6587" stroke-width="3"/>
<path d="M79.7124 250C105.712 237.333 179.912 219.6 268.712 250" stroke="#4B6587" stroke-width="3"/>
<path d="M197.212 391C219.379 393.833 267.312 393.6 263.712 368" stroke="#4B6587" stroke-width="3"/>
<path d="M150.712 390C128.547 392.833 78.6126 389.098 82.2124 363.5" stroke="#4B6587" stroke-width="3"/>
<path d="M67.7124 243L63.2124 225.5C66.0124 227.9 71.0457 235.167 73.2124 238.5C73.2124 242.1 69.5457 243 67.7124 243Z" fill="#4B6587"/>
<path d="M289.212 245L293.212 224.5C292.212 227 281.714 234.501 279.212 240.5C278.587 242 282.712 246.5 289.212 245Z" fill="#4B6587"/>
<path d="M284.944 0.480214C226.717 9.44456 221.243 66.7539 221.741 65.241L227.215 63.2489L232.191 61.7548L237.665 60.2608L242.642 58.7667H250.106H256.576L262.548 60.2608L269.017 61.7548L274.491 64.2449L279.468 67.7311L284.444 71.2173L288.425 74.2054L291.909 78.6876L295.392 83.6678L297.88 87.652L300.369 92.6322L302.359 97.6125L303.354 103.091L304.35 109.067L305.345 116.02L304.35 122.016V127.494L303.354 130.98C307.999 128.822 320.676 122.793 328.241 116.02C335.805 109.247 333.383 92.9449 331.227 85.6407C328.573 78.3365 324.26 62.234 328.241 56.2578C332.222 50.2816 332.886 36.1713 332.72 29.8631C331.227 15.4208 309.105 -3.23954 284.944 0.480214Z" fill="#4B6587"/>
<path d="M73.7125 1.99989C132.212 11 134.712 45.0001 136.712 66L132.712 64L130.712 63L128.212 62L125.712 61L123.212 60L120.212 59.5L117.212 59L114.212 58.5L111.212 58H108.212H104.712L101.212 58.5L98.2124 59L95.7124 59.5L93.2124 60L90.2124 61L87.7124 62L84.7124 63L81.7124 64.5L79.2124 66L76.7124 67.5L74.7124 69L72.2124 71L70.2124 73L68.2124 75L66.2124 77L64.7124 79L63.2124 80.5L61.7124 82.5L60.7124 84.5L59.2124 86.5L58.2124 88.5L57.2124 90.5L56.2124 92.5L55.2124 95L54.7124 97L53.7124 99.5L53.2124 102L52.7124 104.5L52.2124 107.5L51.7124 110.5V114V118V121.5L52.2124 125.5L53.2124 129.5L53.7124 132.5C49.0458 130.333 37.8125 124.8 30.2125 118C22.6125 111.2 25.0458 94.8332 27.2125 87.4999C29.8792 80.1666 34.2125 63.9999 30.2125 57.9999C26.2125 51.9998 25.5458 37.8332 25.7125 31.4999C27.2125 17 49.438 -1.73469 73.7125 1.99989Z" fill="#4B6587"/>
</svg>
