<svg width="142" height="175" viewBox="0 0 142 175" fill="none" xmlns="http://www.w3.org/2000/svg">
<line y1="-1" x2="13" y2="-1" transform="matrix(0 1 1 0 91 153)" stroke="#BD6C47" stroke-width="2"/>
<line y1="-1" x2="10.2956" y2="-1" transform="matrix(-0.485643 0.874157 0.874157 0.485643 91 166)" stroke="#BD6C47" stroke-width="2"/>
<line y1="-1" x2="18" y2="-1" transform="matrix(1 0 0 -1 91 164)" stroke="#BD6C47" stroke-width="2"/>
<line y1="-1" x2="12.083" y2="-1" transform="matrix(0.910366 0.413803 0.413803 -0.910366 91 165)" stroke="#BD6C47" stroke-width="2"/>
<line x1="54" y1="153" x2="54" y2="166" stroke="#BD6C47" stroke-width="2"/>
<line x1="53.8742" y1="165.514" x2="58.8742" y2="174.514" stroke="#BD6C47" stroke-width="2"/>
<line x1="53" y1="165" x2="35" y2="165" stroke="#BD6C47" stroke-width="2"/>
<line x1="53.4138" y1="165.91" x2="42.4138" y2="170.91" stroke="#BD6C47" stroke-width="2"/>
<path d="M35.2172 137C33.8936 144.54 37.997 157.924 65 151.138L35.2172 137Z" fill="#E1D8C9" stroke="#E2DACF"/>
<path d="M107.783 137C109.106 144.54 105.003 157.924 78 151.138L107.783 137Z" fill="#E1D8C9" stroke="#E1D8C7"/>
<circle cx="71" cy="82" r="70" fill="#8D8D8C"/>
<path d="M70.5 92C48.1 91.6 17.5 99.8334 5 104C10.1667 119.667 30.5 151.2 70.5 152C110.5 152.8 131.5 120.333 137 104C124.167 100.167 92.9 92.4 70.5 92Z" fill="#E1D8C9" stroke="#E1D8C9"/>
<path d="M114.657 1C114.657 1 87.5881 5.21028 89.0577 25.1274L123.026 50.2609C122.205 51.9364 123.124 50.7632 129.426 46.7419C135.727 42.7206 132.051 30.6567 129.426 25.1274C142.718 4.01597 114.657 1 114.657 1Z" fill="#484A43" stroke="#434B31"/>
<path d="M30.343 1C30.343 1 57.4119 5.21028 55.9423 25.1274L21.974 50.2609C22.7945 51.9364 21.8755 50.7632 15.5742 46.7419C9.27283 42.7206 12.9486 30.6567 15.5742 25.1274C2.28228 4.01597 30.343 1 30.343 1Z" fill="#484A43" stroke="#484A43"/>
<circle cx="44.5" cy="44.5" r="22.5" fill="white"/>
<circle cx="100.5" cy="44.5" r="22.5" fill="white"/>
<path d="M71.5 75L81.5 55L72.5 51L64.5 55L71.5 75Z" fill="#BD6C47" stroke="#BD6C47"/>
<path d="M35.5 101C30 87 2.49999 68.5 2.49999 68.5C2.49999 68.5 -2 79.5 4 104C10 128.5 35.5 141.5 35.5 141.5C35.5 141.5 41 115 35.5 101Z" fill="#484A43" stroke="#484A43"/>
<path d="M30 92.5C18.6259 78.1868 11.2351 72.3023 2.754 67.229C2.754 67.229 -0.0401049 69.3123 1.03649 85.2596C2.11309 101.207 3.5326 102.739 3.5326 102.739L30 92.5Z" fill="#E1D8C9" stroke="#E1D8C9"/>
<path d="M106.444 101.5C111.943 87.5 139.44 69 139.44 69C139.44 69 143.94 80 137.94 104.5C131.941 129 106.444 142 106.444 142C106.444 142 100.945 115.5 106.444 101.5Z" fill="#484A43" stroke="#484A43"/>
<path d="M111.957 93.254C123.578 79.1395 131.071 73.3841 139.639 68.4589C139.639 68.4589 142.396 70.5909 141.041 86.5191C139.687 102.447 138.241 103.954 138.241 103.954L111.957 93.254Z" fill="#E1D8C9" stroke="#E1D8C9"/>
<path d="M9 86.8628C6.38136 91.7269 3.65799 90.4877 1.14411 89C0.794955 86.7142 0.725121 81.4149 1.1441 81.0257C1.56308 80.6366 6.55594 84.7549 9 86.8628Z" fill="#8D8D8C" stroke="#8D8D8C"/>
<path d="M11.2037 99.9082C9.46953 105.153 6.57234 104.406 3.83831 103.377C3.09754 101.187 2.10855 95.98 2.45359 95.5241C2.79863 95.0681 8.43078 98.2569 11.2037 99.9082Z" fill="#BD6C47" stroke="#BD6C47"/>
<path d="M130.654 101.277C132.262 106.93 135.124 106.066 137.831 104.901C138.599 102.514 139.667 96.8521 139.336 96.3642C139.005 95.8763 133.41 99.4359 130.654 101.277Z" fill="#BD6C47" stroke="#BD6C47"/>
<path d="M123.654 98.2767C125.262 103.93 128.124 103.066 130.831 101.901C131.599 99.5137 132.667 93.8521 132.336 93.3642C132.005 92.8763 126.41 96.4359 123.654 98.2767Z" fill="#BD6C47" stroke="#BD6C47"/>
<path d="M115.654 94.2767C117.262 99.9298 120.124 99.0665 122.831 97.9014C123.599 95.5137 124.667 89.8521 124.336 89.3642C124.005 88.8763 118.41 92.4359 115.654 94.2767Z" fill="#BD6C47" stroke="#BD6C47"/>
<path d="M107.654 92.2767C109.262 97.9298 112.124 97.0665 114.831 95.9014C115.599 93.5137 116.667 87.8521 116.336 87.3642C116.005 86.8763 110.41 90.4359 107.654 92.2767Z" fill="#BD6C47" stroke="#BD6C47"/>
<path d="M19.0389 97.7737C17.3047 103.019 14.4075 102.271 11.6734 101.243C10.9327 99.0522 9.94368 93.8455 10.2887 93.3895C10.6338 92.9336 16.2659 96.1223 19.0389 97.7737Z" fill="#BD6C47" stroke="#BD6C47"/>
<path d="M27.0389 94.7737C25.3047 100.019 22.4075 99.2712 19.6734 98.2426C18.9327 96.0522 17.9437 90.8455 18.2887 90.3895C18.6338 89.9336 24.2659 93.1223 27.0389 94.7737Z" fill="#BD6C47" stroke="#BD6C47"/>
<path d="M35.0389 91.7737C33.3047 97.0187 30.4075 96.2712 27.6734 95.2426C26.9327 93.0522 25.9437 87.8455 26.2887 87.3895C26.6338 86.9336 32.2659 90.1223 35.0389 91.7737Z" fill="#BD6C47" stroke="#BD6C47"/>
<path d="M133 86.6581C135.572 91.3525 138.247 90.1565 140.716 88.7208C141.059 86.5148 141.128 81.4004 140.716 81.0248C140.305 80.6493 135.401 84.6239 133 86.6581Z" fill="#8D8D8C" stroke="#8D8D8C"/>
<path d="M125 84.6581C127.572 89.3525 130.247 88.1565 132.716 86.7208C133.059 84.5148 133.128 79.4004 132.716 79.0248C132.305 78.6493 127.401 82.6239 125 84.6581Z" fill="#8D8D8C" stroke="#8D8D8C"/>
<path d="M117 82.6581C119.572 87.3525 122.247 86.1565 124.716 84.7208C125.059 82.5148 125.128 77.4004 124.716 77.0248C124.305 76.6493 119.401 80.6239 117 82.6581Z" fill="#8D8D8C" stroke="#8D8D8C"/>
<path d="M17.1445 84.8628C14.5259 89.7269 11.8025 88.4877 9.28865 87C8.93949 84.7142 8.86966 79.4149 9.28864 79.0257C9.70762 78.6366 14.7005 82.7549 17.1445 84.8628Z" fill="#8D8D8C" stroke="#8D8D8C"/>
<path d="M25.1445 82.8628C22.5259 87.7269 19.8025 86.4877 17.2886 85C16.9395 82.7142 16.8697 77.4149 17.2886 77.0257C17.7076 76.6366 22.7005 80.7549 25.1445 82.8628Z" fill="#8D8D8C" stroke="#8D8D8C"/>
</svg>
